<?xml version="1.0" encoding="utf-8"?>
<!-- Generator: Adobe Illustrator 23.1.1, SVG Export Plug-In . SVG Version: 6.00 Build 0)  -->
<svg version="1.1" xmlns="http://www.w3.org/2000/svg" xmlns:xlink="http://www.w3.org/1999/xlink" x="0px" y="0px"
	 viewBox="0 0 792 612" style="enable-background:new 0 0 792 612;" xml:space="preserve">
<style type="text/css">
	.st0{fill:#CEC8B6;}
	.st1{fill:#0B1334;}
	.st2{fill:#FDCC9A;}
	.st3{fill:#F4A45A;}
	.st4{fill:#CC1F36;}
	.st5{fill:none;stroke:#6A2711;stroke-width:1.3451;stroke-miterlimit:10;}
</style>
<g id="BG">
	<circle class="st0" cx="396" cy="234.5" r="143.9"/>
</g>
<g id="Hair">
	<circle class="st1" cx="396" cy="205.4" r="83.4"/>
</g>
<g id="Ears">
	<circle class="st2" cx="463" cy="245.2" r="10.4"/>
	<circle class="st3" cx="463" cy="245.2" r="5.2"/>
	<circle class="st2" cx="328.6" cy="242" r="10.4"/>
	<circle class="st3" cx="328.6" cy="242" r="5.2"/>
</g>
<g id="Layer_1">
	<path id="Face" class="st2" d="M396,352.2L396,352.2c-37.2,0-67.4-30.2-67.4-67.4v-65.2c0-37.2,30.2-67.4,67.4-67.4h0
		c37.2,0,67.4,30.2,67.4,67.4v65.2C463.4,322.1,433.2,352.2,396,352.2z"/>
</g>
<g id="Layer_6">
	<circle class="st1" cx="441.6" cy="165.9" r="21.8"/>
	<circle class="st1" cx="453.9" cy="181.6" r="20.4"/>
	<circle class="st1" cx="380.4" cy="161.2" r="26.4"/>
	<circle class="st1" cx="416.2" cy="170.5" r="26.4"/>
	<path class="st1" d="M366.4,154.8L366.4,154.8c-3.2,2.9-8.1,2.6-11-0.6l-15.8-17.5c-2.9-3.2-2.6-8.1,0.6-11l0,0
		c3.2-2.9,8.1-2.6,11,0.6l15.8,17.5C369.8,147,369.6,151.9,366.4,154.8z"/>
	<path class="st1" d="M365.5,148.1L365.5,148.1c-0.9,4.2-5,6.9-9.3,6l-23-4.9c-4.2-0.9-6.9-5-6-9.3l0,0c0.9-4.2,5-6.9,9.3-6l23,4.9
		C363.7,139.7,366.4,143.9,365.5,148.1z"/>
	<path class="st1" d="M360.5,159.8L360.5,159.8c-4.3,0.2-8-3.1-8.2-7.4L351,129c-0.2-4.3,3.1-8,7.4-8.2v0c4.3-0.2,8,3.1,8.2,7.4
		l1.2,23.5C368.1,155.9,364.8,159.6,360.5,159.8z"/>
</g>
<g id="Eyes_1_">
	<circle class="st1" cx="422.4" cy="242" r="7.5"/>
	<circle class="st1" cx="371.6" cy="242" r="7.5"/>
</g>
<g id="Mouth">
	<path d="M422.4,302.4c0,8.2-3.7,15.5-9.6,20.4c-4.6,3.8-10.4,6-16.8,6s-12.2-2.3-16.8-6c-5.9-4.8-9.6-12.2-9.6-20.4
		c0-3,0.5-5.8,1.4-8.5l51.4,7.6C422.4,301.9,422.4,302.2,422.4,302.4z"/>
	<path class="st4" d="M412.8,322.8c-4.6,3.8-10.4,6-16.8,6s-12.2-2.3-16.8-6c2.7-6.7,9.2-11.4,16.8-11.4S410.1,316.1,412.8,322.8z"
		/>
</g>
<g id="Nose_1_">
	<path id="Nose" class="st3" d="M398.1,282.8L398.1,282.8c-3.5,0-6.3-2.8-6.3-6.3v-17.9c0-3.5,2.8-6.3,6.3-6.3h0
		c3.5,0,6.3,2.8,6.3,6.3v17.9C404.4,280,401.6,282.8,398.1,282.8z"/>
	<path class="st5" d="M381.8,263.3h-29.6c-5.7,0-10.3-4.6-10.3-10.3V232c0-2.7,2.2-5,5-5H388c2.6,0,4.7,2.1,4.7,4.7v20.7
		C392.7,258.4,387.8,263.3,381.8,263.3z"/>
	<path class="st5" d="M444.4,263.2h-29.6c-5.7,0-10.3-4.6-10.3-10.3v-21.1c0-2.7,2.2-5,5-5h41.1c2.6,0,4.7,2.1,4.7,4.7v20.7
		C455.3,258.3,450.4,263.2,444.4,263.2z"/>
	<line class="st5" x1="404.5" y1="249.4" x2="392.7" y2="249.4"/>
</g>
<g id="Brows">
	<g id="Eyebrows">
		<path class="st1" d="M380.8,220.8h-18.5c-2.4,0-4.4-2-4.4-4.4v0c0-2.4,2-4.4,4.4-4.4h18.5c2.4,0,4.4,2,4.4,4.4v0
			C385.2,218.8,383.2,220.8,380.8,220.8z"/>
		<path class="st1" d="M429,220.8h-18.5c-2.4,0-4.4-2-4.4-4.4v0c0-2.4,2-4.4,4.4-4.4H429c2.4,0,4.4,2,4.4,4.4v0
			C433.5,218.8,431.5,220.8,429,220.8z"/>
	</g>
</g>
</svg>
